<?xml version="1.0" encoding="UTF-8" standalone="no"?>
<!-- Created with Inkscape (http://www.inkscape.org/) -->

<svg
   version="1.1"
   id="svg2"
   width="3862.6667"
   height="3862.6667"
   viewBox="0 0 3862.6667 3862.6667"
   sodipodi:docname="propulse333.eps"
   xmlns:inkscape="http://www.inkscape.org/namespaces/inkscape"
   xmlns:sodipodi="http://sodipodi.sourceforge.net/DTD/sodipodi-0.dtd"
   xmlns="http://www.w3.org/2000/svg"
   xmlns:svg="http://www.w3.org/2000/svg">
  <defs
     id="defs6">
    <clipPath
       clipPathUnits="userSpaceOnUse"
       id="clipPath18">
      <path
         d="M 0,0 H 28970 V 28970 H 0 Z"
         id="path16" />
    </clipPath>
    <clipPath
       clipPathUnits="userSpaceOnUse"
       id="clipPath24">
      <path
         d="M 0,28966.2 H 28966.2 V -0.0390625 H 0 Z"
         id="path22" />
    </clipPath>
  </defs>
  <sodipodi:namedview
     id="namedview4"
     pagecolor="#ffffff"
     bordercolor="#000000"
     borderopacity="0.25"
     inkscape:showpageshadow="2"
     inkscape:pageopacity="0.0"
     inkscape:pagecheckerboard="0"
     inkscape:deskcolor="#d1d1d1" />
  <g
     id="g8"
     inkscape:groupmode="layer"
     inkscape:label="ink_ext_XXXXXX"
     transform="matrix(1.3333333,0,0,-1.3333333,0,3862.6667)">
    <g
       id="g10"
       transform="scale(0.1)">
      <g
         id="g12">
        <g
           id="g14"
           clip-path="url(#clipPath18)">
          <g
             id="g20"
             clip-path="url(#clipPath24)">
            <path
               d="m 8070.14,13529.7 c 5.8,1.2 12,3.8 18.6,7.6 445.9,258.2 845.18,575.3 1197.66,951.2 55.81,59.4 112.22,117.2 169.23,173.4 12.6,12.4 32.61,13.8 46.82,3.2 25.2,-18.6 52,-42.4 80.21,-71.4 877.14,-902.2 2012.64,-1564.9 3257.34,-1794.6 3154,-581.5 6197.1,1650.2 6746.4,4768.4 341.7,1940.3 -417.7,3990.9 -1840.8,5314 -1014.2,942.8 -2220.3,1442.5 -3618,1499.1 -135.2,5.4 -268.4,7.6 -399.8,6.4 -1271.9,-11 -2409,-410.1 -3411,-1197.3 -1244.85,-977.8 -2127.44,-2480.9 -2242.07,-4074.6 -21,-293.3 -31.6,-587 -31.8,-881.2 -1,-1448.9 -1.4,-2897.6 -1.2,-4346.4 0,-85.2 -12.2,-225.2 3.4,-340.4 1.6,-12 13.2,-20 25.01,-17.4"
               style="fill:none;stroke:#98ecad;stroke-width:7.5;stroke-linecap:butt;stroke-linejoin:miter;stroke-miterlimit:10;stroke-dasharray:none;stroke-opacity:1"
               id="path26" />
            <path
               d="m 17463.6,10901.7 c 0,91.2 -74.1,165.2 -165.3,165.2 h -4.4 c -91.2,0 -165.2,-74 -165.2,-165.2 V 8106.71 c 0,-91.23 74,-165.24 165.2,-165.24 h 4.4 c 91.2,0 165.3,74.01 165.3,165.24 v 2794.99"
               style="fill:none;stroke:#8f9df8;stroke-width:7.5;stroke-linecap:butt;stroke-linejoin:miter;stroke-miterlimit:10;stroke-dasharray:none;stroke-opacity:1"
               id="path28" />
            <path
               d="m 18452.6,10015.9 c -753.2,-78.8 -727.4,-1165.44 56.8,-1198.44 135.2,-5.8 317.2,-23.61 546.3,-53.81 175,-23.01 240.9,-197.45 125.2,-329.88 -204.8,-234.04 -656.7,-175.63 -922.2,-151.43 -150.2,13.61 -402.3,-14.8 -345.6,-228.85 12.2,-45.6 55.4,-97.42 100.6,-103.02 242.8,-29.81 527.9,-34.2 855.4,-13.6 294.6,18.6 661.7,154.23 689.5,500.11 20,250.85 -89,557.32 -353.5,646.14 -168.6,56.61 -368.7,63.81 -559.5,74.61 -186.4,10.6 -371.7,60.61 -393.7,279.26 -19,187.84 94.8,237.25 261.9,246.26 231.8,12.2 463.5,8.39 695.1,23.4 52.2,3.4 90.3,61.61 98.1,112.82 24,156.44 -78.5,207.23 -218.1,214.03 -212.4,10.6 -424.5,4.6 -636.3,-17.6"
               style="fill:none;stroke:#8f9df8;stroke-width:7.5;stroke-linecap:butt;stroke-linejoin:miter;stroke-miterlimit:10;stroke-dasharray:none;stroke-opacity:1"
               id="path30" />
            <path
               d="m 20228.1,8240.53 c 422.5,-390.68 1103.3,-469.3 1460.6,62.22 72.8,108.42 -76.7,204.64 -157.1,242.45 -19,8.8 -41.4,4.4 -55.6,-11 -355.9,-385.09 -951.6,-314.27 -1185,164.63 -12.4,25.21 -11.6,79.02 7.8,100.42 31.2,34.41 66.8,21.41 105.6,21.61 437.1,3.8 873.8,-2 1310.5,-17.4 205.4,-7.21 285.8,101.02 245.8,297.06 -94.8,466.9 -429.3,819.18 -901.4,914.98 -497.5,101.2 -942.8,-221.23 -1112.2,-675.93 -148.4,-398.89 -31.6,-810.18 281,-1099.04"
               style="fill:none;stroke:#8f9df8;stroke-width:7.5;stroke-linecap:butt;stroke-linejoin:miter;stroke-miterlimit:10;stroke-dasharray:none;stroke-opacity:1"
               id="path32" />
            <path
               d="m 6071.71,9793.27 c -7.41,-4.2 -16.61,1.4 -16.01,10 18.01,276.43 -320.66,306.03 -325.27,84.02 -19.4,-919.2 -4.2,-1842.6 -4,-2762.2 0,-64.81 4,-109.22 12,-133.02 59.62,-179.24 298.47,-111.03 301.27,74.41 5.2,352.28 18.2,713.95 39.01,1085.23 0.8,16.41 19.4,25.41 33,16.21 197.65,-134.43 443.3,-227.05 679.95,-230.85 962.01,-15.2 1387.1,1409.7 568.72,1908.41 -184.04,112.22 -368.68,171.02 -553.92,176.82 -284.86,8.6 -495.3,-92.8 -734.75,-229.03"
               style="fill:none;stroke:#8f9df8;stroke-width:7.5;stroke-linecap:butt;stroke-linejoin:miter;stroke-miterlimit:10;stroke-dasharray:none;stroke-opacity:1"
               id="path34" />
            <path
               d="m 8595.25,9781.87 c -17.8,50.41 -12.61,109.42 -29.81,151.43 -83.22,202.4 -317.06,56.41 -317.47,-121.23 -1.4,-564.72 -1.4,-1129.44 0.41,-1693.96 0.59,-208.05 262.25,-244.06 322.26,-53.41 18.61,59.41 27.81,98.42 27.41,117.02 -4.6,238.05 -0.8,475.71 11.4,713.16 25.41,486.1 250.05,776.16 752.16,809.77 6.6,0.4 12.8,3.2 17.6,7.8 118.83,116.23 126.04,341.85 -107.62,308.45 -238.25,-33.99 -455.7,-116.21 -652.73,-246.84 -8.61,-5.6 -20.21,-1.79 -23.61,7.81"
               style="fill:none;stroke:#8f9df8;stroke-width:7.5;stroke-linecap:butt;stroke-linejoin:miter;stroke-miterlimit:10;stroke-dasharray:none;stroke-opacity:1"
               id="path36" />
            <path
               d="m 11695.3,8983.29 c 0,572.93 -464.3,1037.21 -1037.2,1037.21 -572.9,0 -1037.23,-464.28 -1037.23,-1037.21 0,-572.92 464.33,-1037.22 1037.23,-1037.22 572.9,0 1037.2,464.3 1037.2,1037.22"
               style="fill:none;stroke:#8f9df8;stroke-width:7.5;stroke-linecap:butt;stroke-linejoin:miter;stroke-miterlimit:10;stroke-dasharray:none;stroke-opacity:1"
               id="path38" />
            <path
               d="m 14957,8195.72 c 419.1,-366.88 923.2,-368.88 1337.5,3.81 8.4,7.6 21.8,3.2 24.2,-8.01 10,-47 9,-106.02 27.2,-145.63 64.4,-139.63 282.1,-133.03 321.5,24.41 3.4,13.4 5.2,64.61 5.4,153.43 1.4,505.71 1.2,1011.42 -0.6,1517.13 -0.4,91.22 -32,249.05 -123,271.64 -75.3,18.6 -143.1,-1 -203.3,-58.6 -4.6,-4.4 -6.8,-9.8 -6.8,-16 -1.4,-96.62 -1.2,-158.03 0.8,-184.44 19.4,-263.46 16,-508.91 -10.4,-736.16 -50.6,-433.89 -293.9,-749.76 -759.6,-728.56 -744.9,33.61 -635.5,987.02 -637.3,1430.91 -0.4,107.03 5.4,177.64 -51.2,242.85 -76.4,87.6 -208,79.6 -268.1,-21 -16.6,-28.01 -25.8,-69.61 -27.4,-124.63 -15.4,-539.91 -86.4,-1220.46 371.1,-1621.15"
               style="fill:none;stroke:#8f9df8;stroke-width:7.5;stroke-linecap:butt;stroke-linejoin:miter;stroke-miterlimit:10;stroke-dasharray:none;stroke-opacity:1"
               id="path40" />
            <path
               d="m 12487.3,8116.51 c 2,35.4 18.4,44.61 49.4,27.2 346.7,-194.84 801.4,-269.46 1160.4,-61.41 413.3,239.45 639,659.74 503.4,1138.45 -219.5,775.16 -1034.1,964.05 -1691.4,579.12 -10.4,-6 -23.4,1.6 -23.2,13.6 2,127.63 -50.8,193.63 -158.5,198.23 -182.8,7.8 -189,-194.43 -189,-319.65 -0.8,-837.98 -1,-1675.76 -0.4,-2513.75 0,-95.01 -2.8,-247.25 105.8,-277.05 380.5,-104.43 267.3,1004.01 247.1,1175.85 -2.6,22.6 -3.8,35.81 -3.6,39.41"
               style="fill:none;stroke:#8f9df8;stroke-width:7.5;stroke-linecap:butt;stroke-linejoin:miter;stroke-miterlimit:10;stroke-dasharray:none;stroke-opacity:1"
               id="path42" />
            <path
               d="m 10984.8,18140.3 c 193.2,-1350.5 1302.4,-2361.7 2653.9,-2468.4 804.4,-63.4 1588.6,226.5 2173.5,764.8 1301.3,1197.5 1216.1,3302.9 -174.4,4388.7 -690.2,539 -1582.2,754 -2450.6,549 -1464.5,-345.9 -2414.7,-1750.8 -2202.4,-3234.1"
               style="fill:none;stroke:#98ecad;stroke-width:7.5;stroke-linecap:butt;stroke-linejoin:miter;stroke-miterlimit:10;stroke-dasharray:none;stroke-opacity:1"
               id="path44" />
            <path
               d="m 20269.4,9175.73 c 35,-13.4 70,-19.8 105,-19.4 383.7,5.2 767.3,7 1150.8,5.6 37.8,-0.2 79.6,8.8 61.6,58.02 -242.4,666.54 -1062.4,555.32 -1328.8,-16.41 -6.2,-13.4 -2.4,-22.6 11.4,-27.81"
               style="fill:none;stroke:#8f9df8;stroke-width:7.5;stroke-linecap:butt;stroke-linejoin:miter;stroke-miterlimit:10;stroke-dasharray:none;stroke-opacity:1"
               id="path46" />
            <path
               d="m 7463.61,8984.09 c 0,384.29 -311.67,695.95 -695.95,695.95 -384.29,0 -695.95,-311.66 -695.95,-695.95 0,-384.28 311.66,-695.95 695.95,-695.95 384.28,0 695.95,311.67 695.95,695.95"
               style="fill:none;stroke:#8f9df8;stroke-width:7.5;stroke-linecap:butt;stroke-linejoin:miter;stroke-miterlimit:10;stroke-dasharray:none;stroke-opacity:1"
               id="path48" />
            <path
               d="m 11353.6,8982.09 c 0,384.89 -312,696.95 -696.9,696.95 -384.9,0 -696.96,-312.06 -696.96,-696.95 0,-384.88 312.06,-696.95 696.96,-696.95 384.9,0 696.9,312.07 696.9,696.95"
               style="fill:none;stroke:#8f9df8;stroke-width:7.5;stroke-linecap:butt;stroke-linejoin:miter;stroke-miterlimit:10;stroke-dasharray:none;stroke-opacity:1"
               id="path50" />
            <path
               d="m 13882.4,8982.09 c 0,384.89 -312.1,696.95 -697,696.95 -384.8,0 -696.9,-312.06 -696.9,-696.95 0,-384.88 312.1,-696.95 696.9,-696.95 384.9,0 697,312.07 697,696.95"
               style="fill:none;stroke:#8f9df8;stroke-width:7.5;stroke-linecap:butt;stroke-linejoin:miter;stroke-miterlimit:10;stroke-dasharray:none;stroke-opacity:1"
               id="path52" />
          </g>
        </g>
      </g>
      <path
         d="M 0,28966.2 H 28966.2 V -0.0390625 H 0 V 28966.2 M 8070.14,13529.7 c 5.8,1.2 12,3.8 18.6,7.6 445.9,258.2 845.18,575.3 1197.66,951.2 55.81,59.4 112.22,117.2 169.23,173.4 12.6,12.4 32.61,13.8 46.82,3.2 25.2,-18.6 52,-42.4 80.21,-71.4 877.14,-902.2 2012.64,-1564.9 3257.34,-1794.6 3154,-581.5 6197.1,1650.2 6746.4,4768.4 341.7,1940.3 -417.7,3990.9 -1840.8,5314 -1014.2,942.8 -2220.3,1442.5 -3618,1499.1 -135.2,5.4 -268.4,7.6 -399.8,6.4 -1271.9,-11 -2409,-410.1 -3411,-1197.3 -1244.85,-977.8 -2127.44,-2480.9 -2242.07,-4074.6 -21,-293.3 -31.6,-587 -31.8,-881.2 -1,-1448.9 -1.4,-2897.6 -1.2,-4346.4 0,-85.2 -12.2,-225.2 3.4,-340.4 1.6,-12 13.2,-20 25.01,-17.4 m 9393.46,-2628 c 0,91.2 -74.1,165.2 -165.3,165.2 h -4.4 c -91.2,0 -165.2,-74 -165.2,-165.2 V 8106.71 c 0,-91.23 74,-165.24 165.2,-165.24 h 4.4 c 91.2,0 165.3,74.01 165.3,165.24 v 2794.99 m 989,-885.8 c -753.2,-78.8 -727.4,-1165.44 56.8,-1198.44 135.2,-5.8 317.2,-23.61 546.3,-53.81 175,-23.01 240.9,-197.45 125.2,-329.88 -204.8,-234.04 -656.7,-175.63 -922.2,-151.43 -150.2,13.61 -402.3,-14.8 -345.6,-228.85 12.2,-45.6 55.4,-97.42 100.6,-103.02 242.8,-29.81 527.9,-34.2 855.4,-13.6 294.6,18.6 661.7,154.23 689.5,500.11 20,250.85 -89,557.32 -353.5,646.14 -168.6,56.61 -368.7,63.81 -559.5,74.61 -186.4,10.6 -371.7,60.61 -393.7,279.26 -19,187.84 94.8,237.25 261.9,246.26 231.8,12.2 463.5,8.39 695.1,23.4 52.2,3.4 90.3,61.61 98.1,112.82 24,156.44 -78.5,207.23 -218.1,214.03 -212.4,10.6 -424.5,4.6 -636.3,-17.6 m 1775.5,-1775.37 c 422.5,-390.68 1103.3,-469.3 1460.6,62.22 72.8,108.42 -76.7,204.64 -157.1,242.45 -19,8.8 -41.4,4.4 -55.6,-11 -355.9,-385.09 -951.6,-314.27 -1185,164.63 -12.4,25.21 -11.6,79.02 7.8,100.42 31.2,34.41 66.8,21.41 105.6,21.61 437.1,3.8 873.8,-2 1310.5,-17.4 205.4,-7.21 285.8,101.02 245.8,297.06 -94.8,466.9 -429.3,819.18 -901.4,914.98 -497.5,101.2 -942.8,-221.23 -1112.2,-675.93 -148.4,-398.89 -31.6,-810.18 281,-1099.04 M 6071.71,9793.27 c -7.41,-4.2 -16.61,1.4 -16.01,10 18.01,276.43 -320.66,306.03 -325.27,84.02 -19.4,-919.2 -4.2,-1842.6 -4,-2762.2 0,-64.81 4,-109.22 12,-133.02 59.62,-179.24 298.47,-111.03 301.27,74.41 5.2,352.28 18.2,713.95 39.01,1085.23 0.8,16.41 19.4,25.41 33,16.21 197.65,-134.43 443.3,-227.05 679.95,-230.85 962.01,-15.2 1387.1,1409.7 568.72,1908.41 -184.04,112.22 -368.68,171.02 -553.92,176.82 -284.86,8.6 -495.3,-92.8 -734.75,-229.03 m 2523.54,-11.4 c -17.8,50.41 -12.61,109.42 -29.81,151.43 -83.22,202.4 -317.06,56.41 -317.47,-121.23 -1.4,-564.72 -1.4,-1129.44 0.41,-1693.96 0.59,-208.05 262.25,-244.06 322.26,-53.41 18.61,59.41 27.81,98.42 27.41,117.02 -4.6,238.05 -0.8,475.71 11.4,713.16 25.41,486.1 250.05,776.16 752.16,809.77 6.6,0.4 12.8,3.2 17.6,7.8 118.83,116.23 126.04,341.85 -107.62,308.45 -238.25,-33.99 -455.7,-116.21 -652.73,-246.84 -8.61,-5.6 -20.21,-1.79 -23.61,7.81 m 3100.05,-798.58 c 0,572.93 -464.3,1037.21 -1037.2,1037.21 -572.9,0 -1037.23,-464.28 -1037.23,-1037.21 0,-572.92 464.33,-1037.22 1037.23,-1037.22 572.9,0 1037.2,464.3 1037.2,1037.22 M 14957,8195.72 c 419.1,-366.88 923.2,-368.88 1337.5,3.81 8.4,7.6 21.8,3.2 24.2,-8.01 10,-47 9,-106.02 27.2,-145.63 64.4,-139.63 282.1,-133.03 321.5,24.41 3.4,13.4 5.2,64.61 5.4,153.43 1.4,505.71 1.2,1011.42 -0.6,1517.13 -0.4,91.22 -32,249.05 -123,271.64 -75.3,18.6 -143.1,-1 -203.3,-58.6 -4.6,-4.4 -6.8,-9.8 -6.8,-16 -1.4,-96.62 -1.2,-158.03 0.8,-184.44 19.4,-263.46 16,-508.91 -10.4,-736.16 -50.6,-433.89 -293.9,-749.76 -759.6,-728.56 -744.9,33.61 -635.5,987.02 -637.3,1430.91 -0.4,107.03 5.4,177.64 -51.2,242.85 -76.4,87.6 -208,79.6 -268.1,-21 -16.6,-28.01 -25.8,-69.61 -27.4,-124.63 -15.4,-539.91 -86.4,-1220.46 371.1,-1621.15 m -2469.7,-79.21 c 2,35.4 18.4,44.61 49.4,27.2 346.7,-194.84 801.4,-269.46 1160.4,-61.41 413.3,239.45 639,659.74 503.4,1138.45 -219.5,775.16 -1034.1,964.05 -1691.4,579.12 -10.4,-6 -23.4,1.6 -23.2,13.6 2,127.63 -50.8,193.63 -158.5,198.23 -182.8,7.8 -189,-194.43 -189,-319.65 -0.8,-837.98 -1,-1675.76 -0.4,-2513.75 0,-95.01 -2.8,-247.25 105.8,-277.05 380.5,-104.43 267.3,1004.01 247.1,1175.85 -2.6,22.6 -3.8,35.81 -3.6,39.41"
         style="fill:#ffffff;fill-opacity:1;fill-rule:nonzero;stroke:none"
         id="path54" />
      <path
         d="m 8070.14,13529.7 c -11.81,-2.6 -23.41,5.4 -25.01,17.4 -15.6,115.2 -3.4,255.2 -3.4,340.4 -0.2,1448.8 0.2,2897.5 1.2,4346.4 0.2,294.2 10.8,587.9 31.8,881.2 114.63,1593.7 997.22,3096.8 2242.07,4074.6 1002,787.2 2139.1,1186.3 3411,1197.3 131.4,1.2 264.6,-1 399.8,-6.4 1397.7,-56.6 2603.8,-556.3 3618,-1499.1 1423.1,-1323.1 2182.5,-3373.7 1840.8,-5314 -549.3,-3118.2 -3592.4,-5349.9 -6746.4,-4768.4 -1244.7,229.7 -2380.2,892.4 -3257.34,1794.6 -28.21,29 -55.01,52.8 -80.21,71.4 -14.21,10.6 -34.22,9.2 -46.82,-3.2 -57.01,-56.2 -113.42,-114 -169.23,-173.4 -352.48,-375.9 -751.76,-693 -1197.66,-951.2 -6.6,-3.8 -12.8,-6.4 -18.6,-7.6 m 2914.66,4610.6 c 193.2,-1350.5 1302.4,-2361.7 2653.9,-2468.4 804.4,-63.4 1588.6,226.5 2173.5,764.8 1301.3,1197.5 1216.1,3302.9 -174.4,4388.7 -690.2,539 -1582.2,754 -2450.6,549 -1464.5,-345.9 -2414.7,-1750.8 -2202.4,-3234.1"
         style="fill:#30d85b;fill-opacity:1;fill-rule:nonzero;stroke:none"
         id="path56" />
      <path
         d="m 13638.7,15671.9 c -1351.5,106.7 -2460.7,1117.9 -2653.9,2468.4 -212.3,1483.3 737.9,2888.2 2202.4,3234.1 868.4,205 1760.4,-10 2450.6,-549 1390.5,-1085.8 1475.7,-3191.2 174.4,-4388.7 -584.9,-538.3 -1369.1,-828.2 -2173.5,-764.8"
         style="fill:#ffffff;fill-opacity:1;fill-rule:nonzero;stroke:none"
         id="path58" />
      <path
         d="m 17463.6,8106.71 c 0,-91.23 -74.1,-165.24 -165.3,-165.24 h -4.4 c -91.2,0 -165.2,74.01 -165.2,165.24 v 2794.99 c 0,91.2 74,165.2 165.2,165.2 h 4.4 c 91.2,0 165.3,-74 165.3,-165.2 V 8106.71"
         style="fill:#1f3af0;fill-opacity:1;fill-rule:nonzero;stroke:none"
         id="path60" />
      <path
         d="m 18509.4,8817.46 c -784.2,33 -810,1119.64 -56.8,1198.44 211.8,22.2 423.9,28.2 636.3,17.6 139.6,-6.8 242.1,-57.59 218.1,-214.03 -7.8,-51.21 -45.9,-109.42 -98.1,-112.82 -231.6,-15.01 -463.3,-11.2 -695.1,-23.4 -167.1,-9.01 -280.9,-58.42 -261.9,-246.26 22,-218.65 207.3,-268.66 393.7,-279.26 190.8,-10.8 390.9,-18 559.5,-74.61 264.5,-88.82 373.5,-395.29 353.5,-646.14 -27.8,-345.88 -394.9,-481.51 -689.5,-500.11 -327.5,-20.6 -612.6,-16.21 -855.4,13.6 -45.2,5.6 -88.4,57.42 -100.6,103.02 -56.7,214.05 195.4,242.46 345.6,228.85 265.5,-24.2 717.4,-82.61 922.2,151.43 115.7,132.43 49.8,306.87 -125.2,329.88 -229.1,30.2 -411.1,48.01 -546.3,53.81"
         style="fill:#1f3af0;fill-opacity:1;fill-rule:nonzero;stroke:none"
         id="path62" />
      <path
         d="m 20228.1,8240.53 c -312.6,288.86 -429.4,700.15 -281,1099.04 169.4,454.7 614.7,777.13 1112.2,675.93 472.1,-95.8 806.6,-448.08 901.4,-914.98 40,-196.04 -40.4,-304.27 -245.8,-297.06 -436.7,15.4 -873.4,21.2 -1310.5,17.4 -38.8,-0.2 -74.4,12.8 -105.6,-21.61 -19.4,-21.4 -20.2,-75.21 -7.8,-100.42 233.4,-478.9 829.1,-549.72 1185,-164.63 14.2,15.4 36.6,19.8 55.6,11 80.4,-37.81 229.9,-134.03 157.1,-242.45 -357.3,-531.52 -1038.1,-452.9 -1460.6,-62.22 m 41.3,935.2 c 35,-13.4 70,-19.8 105,-19.4 383.7,5.2 767.3,7 1150.8,5.6 37.8,-0.2 79.6,8.8 61.6,58.02 -242.4,666.54 -1062.4,555.32 -1328.8,-16.41 -6.2,-13.4 -2.4,-22.6 11.4,-27.81"
         style="fill:#1f3af0;fill-opacity:1;fill-rule:nonzero;stroke:none"
         id="path64" />
      <path
         d="m 6071.71,9793.27 c 239.45,136.23 449.89,237.63 734.75,229.03 185.24,-5.8 369.88,-64.6 553.92,-176.82 818.38,-498.71 393.29,-1923.61 -568.72,-1908.41 -236.65,3.8 -482.3,96.42 -679.95,230.85 -13.6,9.2 -32.2,0.2 -33,-16.21 -20.81,-371.28 -33.81,-732.95 -39.01,-1085.23 -2.8,-185.44 -241.65,-253.65 -301.27,-74.41 -8,23.8 -12,68.21 -12,133.02 -0.2,919.6 -15.4,1843 4,2762.2 4.61,222.01 343.28,192.41 325.27,-84.02 -0.6,-8.6 8.6,-14.2 16.01,-10 m 1391.9,-809.18 c 0,384.29 -311.67,695.95 -695.95,695.95 -384.29,0 -695.95,-311.66 -695.95,-695.95 0,-384.28 311.66,-695.95 695.95,-695.95 384.28,0 695.95,311.67 695.95,695.95"
         style="fill:#1f3af0;fill-opacity:1;fill-rule:nonzero;stroke:none"
         id="path66" />
      <path
         d="m 8595.25,9781.87 c 3.4,-9.6 15,-13.41 23.61,-7.81 197.03,130.63 414.48,212.85 652.73,246.84 233.66,33.4 226.45,-192.22 107.62,-308.45 -4.8,-4.6 -11,-7.4 -17.6,-7.8 -502.11,-33.61 -726.75,-323.67 -752.16,-809.77 -12.2,-237.45 -16,-475.11 -11.4,-713.16 0.4,-18.6 -8.8,-57.61 -27.41,-117.02 -60.01,-190.65 -321.67,-154.64 -322.26,53.41 -1.81,564.52 -1.81,1129.24 -0.41,1693.96 0.41,177.64 234.25,323.63 317.47,121.23 17.2,-42.01 12.01,-101.02 29.81,-151.43"
         style="fill:#1f3af0;fill-opacity:1;fill-rule:nonzero;stroke:none"
         id="path68" />
      <path
         d="m 11695.3,8983.29 c 0,-572.92 -464.3,-1037.22 -1037.2,-1037.22 -572.9,0 -1037.23,464.3 -1037.23,1037.22 0,572.93 464.33,1037.21 1037.23,1037.21 572.9,0 1037.2,-464.28 1037.2,-1037.21 m -341.7,-1.2 c 0,384.89 -312,696.95 -696.9,696.95 -384.9,0 -696.96,-312.06 -696.96,-696.95 0,-384.88 312.06,-696.95 696.96,-696.95 384.9,0 696.9,312.07 696.9,696.95"
         style="fill:#1f3af0;fill-opacity:1;fill-rule:nonzero;stroke:none"
         id="path70" />
      <path
         d="m 14957,8195.72 c -457.5,400.69 -386.5,1081.24 -371.1,1621.15 1.6,55.02 10.8,96.62 27.4,124.63 60.1,100.6 191.7,108.6 268.1,21 56.6,-65.21 50.8,-135.82 51.2,-242.85 1.8,-443.89 -107.6,-1397.3 637.3,-1430.91 465.7,-21.2 709,294.67 759.6,728.56 26.4,227.25 29.8,472.7 10.4,736.16 -2,26.41 -2.2,87.82 -0.8,184.44 0,6.2 2.2,11.6 6.8,16 60.2,57.6 128,77.2 203.3,58.6 91,-22.59 122.6,-180.42 123,-271.64 1.8,-505.71 2,-1011.42 0.6,-1517.13 -0.2,-88.82 -2,-140.03 -5.4,-153.43 -39.4,-157.44 -257.1,-164.04 -321.5,-24.41 -18.2,39.61 -17.2,98.63 -27.2,145.63 -2.4,11.21 -15.8,15.61 -24.2,8.01 -414.3,-372.69 -918.4,-370.69 -1337.5,-3.81"
         style="fill:#1f3af0;fill-opacity:1;fill-rule:nonzero;stroke:none"
         id="path72" />
      <path
         d="m 12487.3,8116.51 c -0.2,-3.6 1,-16.81 3.6,-39.41 20.2,-171.84 133.4,-1280.28 -247.1,-1175.85 -108.6,29.8 -105.8,182.04 -105.8,277.05 -0.6,837.99 -0.4,1675.77 0.4,2513.75 0,125.22 6.2,327.45 189,319.65 107.7,-4.6 160.5,-70.6 158.5,-198.23 -0.2,-12 12.8,-19.6 23.2,-13.6 657.3,384.93 1471.9,196.04 1691.4,-579.12 135.6,-478.71 -90.1,-899 -503.4,-1138.45 -359,-208.05 -813.7,-133.43 -1160.4,61.41 -31,17.41 -47.4,8.2 -49.4,-27.2 m 1395.1,865.58 c 0,384.89 -312.1,696.95 -697,696.95 -384.8,0 -696.9,-312.06 -696.9,-696.95 0,-384.88 312.1,-696.95 696.9,-696.95 384.9,0 697,312.07 697,696.95"
         style="fill:#1f3af0;fill-opacity:1;fill-rule:nonzero;stroke:none"
         id="path74" />
      <path
         d="m 7463.61,8984.09 c 0,-384.28 -311.67,-695.95 -695.95,-695.95 -384.29,0 -695.95,311.67 -695.95,695.95 0,384.29 311.66,695.95 695.95,695.95 384.28,0 695.95,-311.66 695.95,-695.95"
         style="fill:#ffffff;fill-opacity:1;fill-rule:nonzero;stroke:none"
         id="path76" />
      <path
         d="m 20269.4,9175.73 c -13.8,5.21 -17.6,14.41 -11.4,27.81 266.4,571.73 1086.4,682.95 1328.8,16.41 18,-49.22 -23.8,-58.22 -61.6,-58.02 -383.5,1.4 -767.1,-0.4 -1150.8,-5.6 -35,-0.4 -70,6 -105,19.4"
         style="fill:#ffffff;fill-opacity:1;fill-rule:nonzero;stroke:none"
         id="path78" />
      <path
         d="m 11353.6,8982.09 c 0,-384.88 -312,-696.95 -696.9,-696.95 -384.9,0 -696.96,312.07 -696.96,696.95 0,384.89 312.06,696.95 696.96,696.95 384.9,0 696.9,-312.06 696.9,-696.95"
         style="fill:#ffffff;fill-opacity:1;fill-rule:nonzero;stroke:none"
         id="path80" />
      <path
         d="m 13882.4,8982.09 c 0,-384.88 -312.1,-696.95 -697,-696.95 -384.8,0 -696.9,312.07 -696.9,696.95 0,384.89 312.1,696.95 696.9,696.95 384.9,0 697,-312.06 697,-696.95"
         style="fill:#ffffff;fill-opacity:1;fill-rule:nonzero;stroke:none"
         id="path82" />
    </g>
  </g>
</svg>
