<svg width="13919" height="4236" viewBox="0 0 13919 4236" fill="none" xmlns="http://www.w3.org/2000/svg">
<rect x="809" y="644" width="3000" height="3000" fill="#33A0D5"/>
<path d="M5251.07 1725.49C5241.6 1641.44 5202.53 1576.34 5133.88 1530.17C5065.22 1483.42 4978.81 1460.04 4874.64 1460.04C4800.07 1460.04 4735.56 1471.88 4681.11 1495.55C4626.66 1518.63 4584.34 1550.59 4554.15 1591.43C4524.56 1631.68 4509.77 1677.55 4509.77 1729.04C4509.77 1772.24 4519.83 1809.53 4539.95 1840.9C4560.67 1872.27 4587.59 1898.6 4620.74 1919.91C4654.47 1940.63 4690.58 1958.09 4729.05 1972.29C4767.52 1985.9 4804.51 1997.15 4840.02 2006.03L5017.58 2052.19C5075.58 2066.39 5135.06 2085.63 5196.02 2109.9C5256.98 2134.16 5313.51 2166.12 5365.59 2205.78C5417.67 2245.43 5459.69 2294.56 5491.65 2353.15C5524.21 2411.74 5540.48 2481.88 5540.48 2563.55C5540.48 2666.54 5513.85 2757.98 5460.58 2837.88C5407.91 2917.78 5331.26 2980.81 5230.65 3026.98C5130.62 3073.14 5007.81 3114.04 4865.77 3114.04C4729.64 3114.04 4613.64 3074.62 4514.2 3031.42C4414.77 2988.21 4336.94 2926.95 4280.72 2847.64C4224.49 2767.74 4193.42 2673.05 4187.5 2563.55H4462.71C4468.04 2629.25 4489.35 2684 4526.63 2727.79C4564.51 2771 4612.75 2803.26 4671.34 2824.56C4730.53 2845.28 4795.34 2855.64 4865.77 2855.64C4943.3 2855.64 5012.25 2843.5 5072.62 2819.24C5133.58 2794.38 5181.52 2760.05 5216.44 2716.25C5251.36 2671.86 5268.82 2620.08 5268.82 2560.89C5268.82 2507.03 5253.43 2462.94 5222.66 2428.61C5192.47 2394.28 5151.34 2365.87 5099.25 2343.38C5047.76 2320.89 4989.46 2301.07 4924.36 2283.9L4709.52 2225.31C4563.92 2185.65 4448.51 2127.36 4363.28 2050.41C4278.65 1973.47 4236.33 1871.67 4236.33 1745.02C4236.33 1640.26 4264.74 1548.82 4321.56 1470.69C4378.37 1392.57 4455.31 1331.9 4552.38 1288.7C4649.44 1244.9 4758.94 1223 4880.86 1223C5003.97 1223 5112.57 1244.6 5206.68 1287.81C5301.37 1331.01 5375.95 1390.5 5430.4 1466.25C5484.85 1541.42 5513.26 1627.83 5515.62 1725.49H5251.07Z" fill="#33A0D5"/>
<path d="M6275.46 2029.04V3114.04H6140H6001.14V2029.04H6275.46Z" fill="#33A0D5"/>
<path d="M10044.5 1464.69V1219.09H11507.9V1464.69H10917.9V3110H10633.6V1464.69H10044.5Z" fill="#33A0D5"/>
<path d="M7975.27 3070.12C7881.68 3096.71 7757.98 3110 7604.18 3110C7451.18 3110 7319.75 3089.17 7209.89 3047.52C7100.84 3005.87 7006.85 2944.28 6927.91 2862.74C6758.64 2690.82 6674 2451.54 6674 2144.9C6674 1944.61 6717.95 1771.8 6805.84 1626.46C6924.65 1428.83 7107.35 1302.99 7353.93 1248.93C7429.62 1232.98 7522.39 1225 7632.25 1225C7742.12 1225 7836.92 1230.76 7916.68 1242.28V1497.51C7846.69 1478.02 7746.59 1468.27 7616.38 1468.27C7486.99 1468.27 7380.79 1484.22 7297.78 1516.12C7214.77 1548.03 7146.01 1593.67 7091.48 1653.05C6982.43 1769.14 6927.91 1933.09 6927.91 2144.9C6927.91 2360.25 6981.62 2532.62 7089.04 2662.01C7206.23 2802.92 7373.46 2873.38 7590.75 2873.38C7641.2 2873.38 7688 2871.16 7731.13 2866.73V2316.5H7975.27V3070.12Z" fill="#33A0D5"/>
<path d="M9658.5 2024.39V1223H9930.47V3110H9658.5V2301.81L7347 2301.81V2024.39L9658.5 2024.39Z" fill="#33A0D5"/>
<path d="M8572 1222H8845V2014H8572V1222Z" fill="#33A0D5"/>
<rect x="8572" y="2316" width="273" height="794" fill="#33A0D5"/>
<rect x="3164" y="1216" width="295" height="1815" fill="white"/>
<path d="M11569.1 3120.8C11538.1 3120.8 11511.4 3109.81 11489 3087.84C11466.7 3065.49 11455.5 3038.6 11455.5 3007.16C11455.5 2976.1 11466.7 2949.58 11489 2927.61C11511.4 2905.27 11538.1 2894.09 11569.1 2894.09C11600.2 2894.09 11626.9 2905.27 11649.2 2927.61C11671.6 2949.58 11682.8 2976.1 11682.8 3007.16C11682.8 3027.99 11677.5 3047.12 11666.9 3064.55C11656.6 3081.59 11643 3095.23 11626 3105.45C11608.9 3115.68 11590 3120.8 11569.1 3120.8ZM12164.3 3129.32C12109 3129.32 12059 3119.09 12014.3 3098.64C11969.6 3077.8 11934.2 3047.69 11908.1 3008.3C11882.3 2968.9 11869.4 2920.61 11869.4 2863.41C11869.4 2814.17 11878.9 2773.64 11897.8 2741.82C11916.8 2710 11942.3 2684.81 11974.5 2666.25C12006.7 2647.69 12042.7 2633.67 12082.5 2624.2C12122.3 2614.73 12162.8 2607.54 12204.1 2602.61C12256.4 2596.55 12298.8 2591.63 12331.4 2587.84C12363.9 2583.67 12387.6 2577.05 12402.4 2567.95C12417.1 2558.86 12424.5 2544.09 12424.5 2523.64V2519.66C12424.5 2470.04 12410.5 2431.59 12382.5 2404.32C12354.8 2377.05 12313.5 2363.41 12258.6 2363.41C12201.4 2363.41 12156.4 2376.1 12123.4 2401.48C12090.8 2426.48 12068.3 2454.32 12055.8 2485L11896.1 2448.64C11915.1 2395.61 11942.7 2352.8 11979.1 2320.23C12015.8 2287.27 12058.1 2263.41 12105.8 2248.64C12153.5 2233.48 12203.7 2225.91 12256.4 2225.91C12291.2 2225.91 12328.1 2230.08 12367.1 2238.41C12406.5 2246.36 12443.3 2261.14 12477.4 2282.73C12511.8 2304.32 12540.1 2335.19 12562 2375.34C12584 2415.11 12595 2466.82 12595 2530.45V3110H12429.1V2990.68H12422.3C12411.3 3012.65 12394.8 3034.24 12372.8 3055.45C12350.9 3076.67 12322.6 3094.28 12288.2 3108.3C12253.7 3122.31 12212.4 3129.32 12164.3 3129.32ZM12201.2 2992.95C12248.2 2992.95 12288.4 2983.67 12321.7 2965.11C12355.4 2946.55 12381 2922.31 12398.4 2892.39C12416.2 2862.08 12425.1 2829.7 12425.1 2795.23V2682.73C12419 2688.79 12407.3 2694.47 12389.9 2699.77C12372.8 2704.7 12353.3 2709.05 12331.4 2712.84C12309.4 2716.25 12288 2719.47 12267.1 2722.5C12246.3 2725.15 12228.9 2727.42 12214.9 2729.32C12181.9 2733.48 12151.8 2740.49 12124.5 2750.34C12097.6 2760.19 12076 2774.39 12059.8 2792.95C12043.9 2811.14 12035.9 2835.38 12035.9 2865.68C12035.9 2907.73 12051.4 2939.55 12082.5 2961.14C12113.5 2982.35 12153.1 2992.95 12201.2 2992.95ZM12821.3 3110V2237.27H12991.2V3110H12821.3ZM12907.1 2102.61C12877.5 2102.61 12852.1 2092.77 12830.9 2073.07C12810.1 2052.99 12799.7 2029.13 12799.7 2001.48C12799.7 1973.45 12810.1 1949.58 12830.9 1929.89C12852.1 1909.81 12877.5 1899.77 12907.1 1899.77C12936.6 1899.77 12961.8 1909.81 12982.6 1929.89C13003.8 1949.58 13014.4 1973.45 13014.4 2001.48C13014.4 2029.13 13003.8 2052.99 12982.6 2073.07C12961.8 2092.77 12936.6 2102.61 12907.1 2102.61Z" fill="#7D7D7D" fill-opacity="0.8"/>
<path d="M1993 1227L2893 3017.1H1093L1993 1227Z" fill="white"/>
<path d="M1993 1833L2893 3623.1H1093L1993 1833Z" fill="#33A0D5"/>
<circle r="170" transform="matrix(1 0 0 -1 6131 1543)" fill="#33A0D5" fill-opacity="0.8"/>
<path d="M6451 1543C6451 1366.27 6307.73 1223 6131 1223C5954.27 1223 5811 1366.27 5811 1543C5811 1719.73 5954.27 1863 6131 1863C6307.73 1863 6451 1719.73 6451 1543ZM5877.54 1543C5877.54 1403.02 5991.02 1289.54 6131 1289.54C6270.98 1289.54 6384.46 1403.02 6384.46 1543C6384.46 1682.98 6270.98 1796.46 6131 1796.46C5991.02 1796.46 5877.54 1682.98 5877.54 1543Z" fill="#7D7D7D" fill-opacity="0.8"/>
</svg>
